# Blender3D v248 OBJ File: cubo.blend
# www.blender3d.org
mtllib cubo.mtl
v 1.000000 -1.000000 -1.000000
v 1.000000 -1.000000 1.000000
v -1.000000 -1.000000 1.000000
v -1.000000 -1.000000 -1.000000
v 1.000000 1.000000 -1.000000
v 0.999999 1.000000 1.000001
v -1.000000 1.000000 1.000000
v -1.000000 1.000000 -1.000000
vt 0.334353 1.000000
vt 0.333333 0.501529
vt 0.665647 0.500000
vt 0.666667 0.998471
vt 1.000000 0.001529
vt 0.998981 0.500000
vt 0.666667 0.498471
vt 0.667686 0.000000
vt 0.665647 0.000000
vt 0.334353 0.500000
vt 0.333333 0.001529
vt 1.000000 0.998471
vt 0.667686 1.000000
vt 0.666667 0.501529
vt 0.000000 0.998471
vt 0.001020 0.500000
vt 0.332314 1.000000
vt 0.333333 0.498471
vt 0.000000 0.001529
vt 0.332314 0.000000
vt 0.334353 1.000000
vn -0.000000 -1.000000 0.000000
vn 0.000000 1.000000 -0.000000
vn 1.000000 0.000000 0.000000
vn -0.000000 -0.000000 1.000000
vn -1.000000 -0.000000 -0.000000
vn 0.000000 0.000000 -1.000000
usemtl Material_aTextura.tga
s off
f 1/21/1 2/2/1 3/3/1 4/4/1
f 5/5/2 8/6/2 7/7/2 6/8/2
f 1/9/3 5/7/3 6/10/3 2/11/3
f 2/6/4 6/12/4 7/13/4 3/14/4
f 3/15/5 7/16/5 8/2/5 4/17/5
f 5/18/6 1/16/6 4/19/6 8/20/6
