# Blender3D v249 OBJ File: 
# www.blender3d.org
mtllib garrafa.mtl
v 0.707107 -1.000000 -0.707107
v 1.000000 -1.000000 0.000000
v 0.707107 -1.000000 0.707107
v 0.000000 -1.000000 1.000000
v -0.707107 -1.000000 0.707107
v -1.000000 -1.000000 0.000000
v -0.707107 -1.000000 -0.707107
v 0.000000 -1.000000 -1.000000
v 0.707106 1.547641 -0.707107
v 1.000000 1.547641 -0.000001
v 0.707107 1.547641 0.707107
v 0.000000 1.547641 1.000000
v -0.707107 1.547641 0.707106
v -1.000000 1.547641 -0.000001
v -0.707106 1.547641 -0.707108
v 0.000001 1.547641 -1.000000
v 0.000000 -1.256707 0.000000
v 0.000000 -1.256707 -0.540144
v -0.381939 -1.256707 -0.381939
v -0.540144 -1.256707 0.000000
v -0.381939 -1.256707 0.381939
v 0.000000 -1.256707 0.540144
v 0.381939 -1.256707 0.381939
v 0.540144 -1.256707 0.000000
v 0.381939 -1.256707 -0.381939
v 0.000001 2.677151 -0.501145
v -0.354363 2.677151 -0.354364
v -0.501145 2.677151 -0.000001
v -0.354363 2.677151 0.354363
v 0.000000 2.677151 0.501145
v 0.354363 2.677151 0.354363
v 0.501145 2.677151 -0.000001
v 0.354363 2.677151 -0.354363
v 0.252452 4.251619 -0.252452
v 0.357021 4.251619 -0.000001
v 0.252452 4.251619 0.252451
v 0.000000 4.251619 0.357020
v -0.252452 4.251619 0.252451
v -0.357021 4.251619 -0.000001
v -0.252451 4.251619 -0.252452
v 0.000001 4.251619 -0.357021
v 0.000001 4.354302 -0.424071
v -0.299863 4.354302 -0.299864
v -0.424071 4.354302 -0.000001
v -0.299863 4.354302 0.299863
v 0.000000 4.354302 0.424071
v 0.299864 4.354302 0.299863
v 0.424071 4.354302 -0.000001
v 0.299863 4.354302 -0.299864
v 0.242171 4.474098 -0.242171
v 0.342481 4.474098 -0.000001
v 0.242171 4.474098 0.242170
v 0.000000 4.474098 0.342481
v -0.242170 4.474098 0.242170
v -0.342481 4.474098 -0.000001
v -0.242170 4.474098 -0.242171
v 0.000001 4.474098 -0.342481
v 0.000000 4.474098 -0.000000
vt 0.255123 0.740989
vt 0.255123 0.344781
vt 0.313409 0.344781
vt 0.313409 0.740989
vt 0.371694 0.344781
vt 0.371694 0.740989
vt 0.429980 0.344781
vt 0.429980 0.740989
vt 0.488265 0.344781
vt 0.488265 0.740989
vt 0.021982 0.740989
vt 0.021982 0.344781
vt 0.080267 0.344781
vt 0.080267 0.740989
vt 0.138553 0.344781
vt 0.138553 0.740989
vt 0.196838 0.344781
vt 0.196838 0.740989
vt 0.255123 0.800838
vt 0.196838 0.800838
vt 0.138553 0.800838
vt 0.080267 0.800838
vt 0.546551 0.740989
vt 0.546551 0.800838
vt 0.488265 0.800838
vt 0.429980 0.800838
vt 0.371694 0.800838
vt 0.313409 0.800838
vt 0.475804 0.800838
vt 0.019632 0.800838
vt 0.744847 0.693602
vt 0.689219 0.693602
vt 0.689219 0.442273
vt 0.744847 0.442273
vt 0.633591 0.693602
vt 0.633591 0.442273
vt 0.577963 0.693602
vt 0.577963 0.442273
vt 0.522335 0.693602
vt 0.522335 0.442273
vt 0.967358 0.693602
vt 0.911731 0.693602
vt 0.911730 0.442273
vt 0.967358 0.442273
vt 0.856103 0.693602
vt 0.856103 0.442273
vt 0.800475 0.693602
vt 0.800475 0.442273
vt 0.744847 0.091936
vt 0.800475 0.091936
vt 0.856103 0.091936
vt 0.911730 0.091936
vt 0.967358 0.091936
vt 0.522335 0.091936
vt 0.577963 0.091936
vt 0.633591 0.091936
vt 0.689219 0.091936
vt 0.689219 0.069088
vt 0.744847 0.069088
vt 0.633591 0.069088
vt 0.577963 0.069088
vt 0.522335 0.069088
vt 0.911730 0.069088
vt 0.967358 0.069088
vt 0.856103 0.069088
vt 0.800475 0.069088
vt 0.744847 0.042431
vt 0.800475 0.042431
vt 0.856103 0.042431
vt 0.911730 0.042431
vt 0.967358 0.042431
vt 0.522335 0.042431
vt 0.577963 0.042431
vt 0.633591 0.042431
vt 0.689219 0.042431
vt 0.725010 0.042431
vn 0.627857 -0.459914 -0.627857
vn 0.692496 0.202155 -0.692496
vn 0.979339 0.202155 0.000000
vn 0.887936 -0.459914 0.000000
vn 0.692496 0.202155 0.692496
vn 0.627857 -0.459914 0.627857
vn 0.000000 0.202155 0.979339
vn 0.000000 -0.459914 0.887936
vn -0.692496 0.202155 0.692496
vn -0.627857 -0.459914 0.627857
vn -0.979339 0.202155 0.000000
vn -0.887936 -0.459914 0.000000
vn -0.692496 0.202155 -0.692496
vn -0.627857 -0.459914 -0.627857
vn 0.000000 0.202155 -0.979339
vn 0.000000 -0.459914 -0.887936
vn 0.222358 -0.949248 -0.222358
vn 0.000000 -0.949248 -0.314463
vn -0.222358 -0.949248 -0.222358
vn -0.314463 -0.949248 0.000000
vn -0.222358 -0.949248 0.222358
vn 0.000000 -0.949248 0.314463
vn 0.222358 -0.949248 0.222358
vn 0.314463 -0.949248 0.000000
vn 0.000000 -1.000000 0.000000
vn 0.000000 0.247414 -0.968902
vn 0.685110 0.247414 -0.685110
vn -0.685110 0.247414 -0.685110
vn -0.968902 0.247414 0.000000
vn -0.685110 0.247414 0.685110
vn 0.000000 0.247414 0.968902
vn 0.685110 0.247414 0.685110
vn 0.968902 0.247414 0.000000
vn 0.688040 -0.230506 -0.688040
vn 0.973052 -0.230506 0.000000
vn 0.688040 -0.230506 0.688040
vn 0.000000 -0.230506 0.973052
vn -0.688040 -0.230506 0.688040
vn -0.973052 -0.230506 0.000000
vn -0.688040 -0.230506 -0.688040
vn 0.000000 -0.230506 -0.973052
vn 0.000000 0.008667 -0.999939
vn 0.707053 0.008667 -0.707053
vn -0.707053 0.008667 -0.707053
vn -0.999939 0.008667 0.000000
vn -0.707053 0.008667 0.707053
vn 0.000000 0.008667 0.999939
vn 0.707053 0.008667 0.707053
vn 0.999939 0.008667 0.000000
vn 0.399365 0.825221 -0.399365
vn 0.564776 0.825221 0.000000
vn 0.399365 0.825221 0.399365
vn 0.000000 0.825221 0.564776
vn -0.399365 0.825221 0.399365
vn -0.564776 0.825221 0.000000
vn -0.399365 0.825221 -0.399365
vn 0.000000 0.825221 -0.564776
vn 0.000000 1.000000 0.000000
usemtl None_cerveja.tga_cerveja.tga
s 1
f 1/1/1 9/2/2 10/3/3 2/4/4
f 2/4/4 10/3/3 11/5/5 3/6/6
f 3/6/6 11/5/5 12/7/7 4/8/8
f 4/8/8 12/7/7 13/9/9 5/10/10
f 5/11/10 13/12/9 14/13/11 6/14/12
f 6/14/12 14/13/11 15/15/13 7/16/14
f 7/16/14 15/15/13 16/17/15 8/18/16
f 9/2/2 1/1/1 8/18/16 16/17/15
f 8/18/16 1/1/1 25/19/17 18/20/18
f 7/16/14 8/18/16 18/20/18 19/21/19
f 6/14/12 7/16/14 19/21/19 20/22/20
f 5/10/10 6/23/12 20/24/20 21/25/21
f 4/8/8 5/10/10 21/25/21 22/26/22
f 3/6/6 4/8/8 22/26/22 23/27/23
f 2/4/4 3/6/6 23/27/23 24/28/24
f 1/1/1 2/4/4 24/28/24 25/19/17
f 17/29/25 25/19/17 24/28/24
f 17/29/25 24/28/24 23/27/23
f 17/29/25 23/27/23 22/26/22
f 17/29/25 22/26/22 21/25/21
f 17/29/25 21/25/21 20/24/20
f 17/30/25 20/22/20 19/21/19
f 17/30/25 19/21/19 18/20/18
f 18/20/18 25/19/17 17/30/25
f 9/31/2 16/32/15 26/33/26 33/34/27
f 16/32/15 15/35/13 27/36/28 26/33/26
f 15/35/13 14/37/11 28/38/29 27/36/28
f 14/37/11 13/39/9 29/40/30 28/38/29
f 13/41/9 12/42/7 30/43/31 29/44/30
f 12/42/7 11/45/5 31/46/32 30/43/31
f 11/45/5 10/47/3 32/48/33 31/46/32
f 10/47/3 9/31/2 33/34/27 32/48/33
f 32/48/33 33/34/27 34/49/34 35/50/35
f 31/46/32 32/48/33 35/50/35 36/51/36
f 30/43/31 31/46/32 36/51/36 37/52/37
f 29/44/30 30/43/31 37/52/37 38/53/38
f 28/38/29 29/40/30 38/54/38 39/55/39
f 27/36/28 28/38/29 39/55/39 40/56/40
f 26/33/26 27/36/28 40/56/40 41/57/41
f 33/34/27 26/33/26 41/57/41 34/49/34
f 34/49/34 41/57/41 42/58/42 49/59/43
f 41/57/41 40/56/40 43/60/44 42/58/42
f 40/56/40 39/55/39 44/61/45 43/60/44
f 39/55/39 38/54/38 45/62/46 44/61/45
f 38/53/38 37/52/37 46/63/47 45/64/46
f 37/52/37 36/51/36 47/65/48 46/63/47
f 36/51/36 35/50/35 48/66/49 47/65/48
f 35/50/35 34/49/34 49/59/43 48/66/49
f 48/66/49 49/59/43 50/67/50 51/68/51
f 47/65/48 48/66/49 51/68/51 52/69/52
f 46/63/47 47/65/48 52/69/52 53/70/53
f 45/64/46 46/63/47 53/70/53 54/71/54
f 44/61/45 45/62/46 54/72/54 55/73/55
f 43/60/44 44/61/45 55/73/55 56/74/56
f 42/58/42 43/60/44 56/74/56 57/75/57
f 49/59/43 42/58/42 57/75/57 50/67/50
f 58/76/58 51/68/51 50/67/50
f 58/76/58 52/69/52 51/68/51
f 58/76/58 53/70/53 52/69/52
f 58/76/58 54/72/54 53/70/53
f 58/76/58 55/73/55 54/72/54
f 58/76/58 56/74/56 55/73/55
f 58/76/58 57/75/57 56/74/56
f 58/76/58 50/67/50 57/75/57
