# Arquivo gerado com o criador de Mapas do Pega
mtllib vazio.mtl
v 0.0 0 0.0
v 0.0 0 1.0
v 0 1.0 0.0
v 0 1.0 1.0
v 0 2.0 0.0
v 0 2.0 1.0
v 0 3.0 0.0
v 0 3.0 1.0
v 0 4.0 0.0
v 0 4.0 1.0
v 0 5.0 0.0
v 0 5.0 1.0
v 0 6.0 0.0
v 0 6.0 1.0
v 0 7.0 0.0
v 0 7.0 1.0
v 0 8.0 0.0
v 0 8.0 1.0
v 0 9.0 0.0
v 0 9.0 1.0
v 0.0 10.0 0.0
v 0.0 10.0 1.0
v 1.0 0 0.0
v 1.0 0 1.0
v 1.0 1.0 0.0
v 1.0 1.0 1.0
v 1.0 2.0 0.0
v 1.0 2.0 1.0
v 1.0 3.0 0.0
v 1.0 3.0 1.0
v 1.0 4.0 0.0
v 1.0 4.0 1.0
v 1.0 5.0 0.0
v 1.0 5.0 1.0
v 1.0 6.0 0.0
v 1.0 6.0 1.0
v 1.0 7.0 0.0
v 1.0 7.0 1.0
v 1.0 8.0 0.0
v 1.0 8.0 1.0
v 1.0 9.0 0.0
v 1.0 9.0 1.0
v 1.0 10.0 0.0
v 1.0 10.0 1.0
v 2.0 0 0.0
v 2.0 0 1.0
v 2.0 1.0 0.0
v 2.0 1.0 1.0
v 2.0 2.0 0.0
v 2.0 2.0 1.0
v 2.0 3.0 0.0
v 2.0 3.0 1.0
v 2.0 4.0 0.0
v 2.0 4.0 1.0
v 2.0 5.0 0.0
v 2.0 5.0 1.0
v 2.0 6.0 0.0
v 2.0 6.0 1.0
v 2.0 7.0 0.0
v 2.0 7.0 1.0
v 2.0 8.0 0.0
v 2.0 8.0 1.0
v 2.0 9.0 0.0
v 2.0 9.0 1.0
v 2.0 10.0 0.0
v 2.0 10.0 1.0
v 3.0 0 0.0
v 3.0 0 1.0
v 3.0 1.0 0.0
v 3.0 1.0 1.0
v 3.0 2.0 0.0
v 3.0 2.0 1.0
v 3.0 3.0 0.0
v 3.0 3.0 1.0
v 3.0 4.0 0.0
v 3.0 4.0 1.0
v 3.0 5.0 0.0
v 3.0 5.0 1.0
v 3.0 6.0 0.0
v 3.0 6.0 1.0
v 3.0 7.0 0.0
v 3.0 7.0 1.0
v 3.0 8.0 0.0
v 3.0 8.0 1.0
v 3.0 9.0 0.0
v 3.0 9.0 1.0
v 3.0 10.0 0.0
v 3.0 10.0 1.0
v 4.0 0 0.0
v 4.0 0 1.0
v 4.0 1.0 0.0
v 4.0 1.0 1.0
v 4.0 2.0 0.0
v 4.0 2.0 1.0
v 4.0 3.0 0.0
v 4.0 3.0 1.0
v 4.0 4.0 0.0
v 4.0 4.0 1.0
v 4.0 5.0 0.0
v 4.0 5.0 1.0
v 4.0 6.0 0.0
v 4.0 6.0 1.0
v 4.0 7.0 0.0
v 4.0 7.0 1.0
v 4.0 8.0 0.0
v 4.0 8.0 1.0
v 4.0 9.0 0.0
v 4.0 9.0 1.0
v 4.0 10.0 0.0
v 4.0 10.0 1.0
v 5.0 0 0.0
v 5.0 0 1.0
v 5.0 1.0 0.0
v 5.0 1.0 1.0
v 5.0 2.0 0.0
v 5.0 2.0 1.0
v 5.0 3.0 0.0
v 5.0 3.0 1.0
v 5.0 4.0 0.0
v 5.0 4.0 1.0
v 5.0 5.0 0.0
v 5.0 5.0 1.0
v 5.0 6.0 0.0
v 5.0 6.0 1.0
v 5.0 7.0 0.0
v 5.0 7.0 1.0
v 5.0 8.0 0.0
v 5.0 8.0 1.0
v 5.0 9.0 0.0
v 5.0 9.0 1.0
v 5.0 10.0 0.0
v 5.0 10.0 1.0
v 6.0 0 0.0
v 6.0 0 1.0
v 6.0 1.0 0.0
v 6.0 1.0 1.0
v 6.0 2.0 0.0
v 6.0 2.0 1.0
v 6.0 3.0 0.0
v 6.0 3.0 1.0
v 6.0 4.0 0.0
v 6.0 4.0 1.0
v 6.0 5.0 0.0
v 6.0 5.0 1.0
v 6.0 6.0 0.0
v 6.0 6.0 1.0
v 6.0 7.0 0.0
v 6.0 7.0 1.0
v 6.0 8.0 0.0
v 6.0 8.0 1.0
v 6.0 9.0 0.0
v 6.0 9.0 1.0
v 6.0 10.0 0.0
v 6.0 10.0 1.0
v 7.0 0 0.0
v 7.0 0 1.0
v 7.0 1.0 0.0
v 7.0 1.0 1.0
v 7.0 2.0 0.0
v 7.0 2.0 1.0
v 7.0 3.0 0.0
v 7.0 3.0 1.0
v 7.0 4.0 0.0
v 7.0 4.0 1.0
v 7.0 5.0 0.0
v 7.0 5.0 1.0
v 7.0 6.0 0.0
v 7.0 6.0 1.0
v 7.0 7.0 0.0
v 7.0 7.0 1.0
v 7.0 8.0 0.0
v 7.0 8.0 1.0
v 7.0 9.0 0.0
v 7.0 9.0 1.0
v 7.0 10.0 0.0
v 7.0 10.0 1.0
v 8.0 0 0.0
v 8.0 0 1.0
v 8.0 1.0 0.0
v 8.0 1.0 1.0
v 8.0 2.0 0.0
v 8.0 2.0 1.0
v 8.0 3.0 0.0
v 8.0 3.0 1.0
v 8.0 4.0 0.0
v 8.0 4.0 1.0
v 8.0 5.0 0.0
v 8.0 5.0 1.0
v 8.0 6.0 0.0
v 8.0 6.0 1.0
v 8.0 7.0 0.0
v 8.0 7.0 1.0
v 8.0 8.0 0.0
v 8.0 8.0 1.0
v 8.0 9.0 0.0
v 8.0 9.0 1.0
v 8.0 10.0 0.0
v 8.0 10.0 1.0
v 9.0 0 0.0
v 9.0 0 1.0
v 9.0 1.0 0.0
v 9.0 1.0 1.0
v 9.0 2.0 0.0
v 9.0 2.0 1.0
v 9.0 3.0 0.0
v 9.0 3.0 1.0
v 9.0 4.0 0.0
v 9.0 4.0 1.0
v 9.0 5.0 0.0
v 9.0 5.0 1.0
v 9.0 6.0 0.0
v 9.0 6.0 1.0
v 9.0 7.0 0.0
v 9.0 7.0 1.0
v 9.0 8.0 0.0
v 9.0 8.0 1.0
v 9.0 9.0 0.0
v 9.0 9.0 1.0
v 9.0 10.0 0.0
v 9.0 10.0 1.0
v 10.0 0 0.0
v 10.0 0 1.0
v 10.0 1.0 0.0
v 10.0 1.0 1.0
v 10.0 2.0 0.0
v 10.0 2.0 1.0
v 10.0 3.0 0.0
v 10.0 3.0 1.0
v 10.0 4.0 0.0
v 10.0 4.0 1.0
v 10.0 5.0 0.0
v 10.0 5.0 1.0
v 10.0 6.0 0.0
v 10.0 6.0 1.0
v 10.0 7.0 0.0
v 10.0 7.0 1.0
v 10.0 8.0 0.0
v 10.0 8.0 1.0
v 10.0 9.0 0.0
v 10.0 9.0 1.0
v 10.0 10.0 0.0
v 10.0 10.0 1.0
vt 0.0 0.0
vt 1.0 0.0
vt 1.0 1.0
vt 0.0 1.0
vn -1.0 0.0 0.0
vn 0.0 -1.0 0.0
vn 0.0 0.0 -1.0
vn 0.0 0.0 1.0
vn 0.0 1.0 0.0
vn 1.0 0.0 0.0
s off
usemtl Material_Chao
f 1/1/4 23/2/4 25/3/4 3/4/4
f 3/1/4 25/2/4 27/3/4 5/4/4
f 5/1/4 27/2/4 29/3/4 7/4/4
f 7/1/4 29/2/4 31/3/4 9/4/4
f 9/1/4 31/2/4 33/3/4 11/4/4
f 11/1/4 33/2/4 35/3/4 13/4/4
f 13/1/4 35/2/4 37/3/4 15/4/4
f 15/1/4 37/2/4 39/3/4 17/4/4
f 17/1/4 39/2/4 41/3/4 19/4/4
f 19/1/4 41/2/4 43/3/4 21/4/4
f 23/1/4 45/2/4 47/3/4 25/4/4
f 25/1/4 47/2/4 49/3/4 27/4/4
f 27/1/4 49/2/4 51/3/4 29/4/4
f 29/1/4 51/2/4 53/3/4 31/4/4
f 31/1/4 53/2/4 55/3/4 33/4/4
f 33/1/4 55/2/4 57/3/4 35/4/4
f 35/1/4 57/2/4 59/3/4 37/4/4
f 37/1/4 59/2/4 61/3/4 39/4/4
f 39/1/4 61/2/4 63/3/4 41/4/4
f 41/1/4 63/2/4 65/3/4 43/4/4
f 45/1/4 67/2/4 69/3/4 47/4/4
f 47/1/4 69/2/4 71/3/4 49/4/4
f 49/1/4 71/2/4 73/3/4 51/4/4
f 51/1/4 73/2/4 75/3/4 53/4/4
f 53/1/4 75/2/4 77/3/4 55/4/4
f 55/1/4 77/2/4 79/3/4 57/4/4
f 57/1/4 79/2/4 81/3/4 59/4/4
f 59/1/4 81/2/4 83/3/4 61/4/4
f 61/1/4 83/2/4 85/3/4 63/4/4
f 63/1/4 85/2/4 87/3/4 65/4/4
f 67/1/4 89/2/4 91/3/4 69/4/4
f 69/1/4 91/2/4 93/3/4 71/4/4
f 71/1/4 93/2/4 95/3/4 73/4/4
f 73/1/4 95/2/4 97/3/4 75/4/4
f 75/1/4 97/2/4 99/3/4 77/4/4
f 77/1/4 99/2/4 101/3/4 79/4/4
f 79/1/4 101/2/4 103/3/4 81/4/4
f 81/1/4 103/2/4 105/3/4 83/4/4
f 83/1/4 105/2/4 107/3/4 85/4/4
f 85/1/4 107/2/4 109/3/4 87/4/4
f 89/1/4 111/2/4 113/3/4 91/4/4
f 91/1/4 113/2/4 115/3/4 93/4/4
f 93/1/4 115/2/4 117/3/4 95/4/4
f 95/1/4 117/2/4 119/3/4 97/4/4
f 97/1/4 119/2/4 121/3/4 99/4/4
f 99/1/4 121/2/4 123/3/4 101/4/4
f 101/1/4 123/2/4 125/3/4 103/4/4
f 103/1/4 125/2/4 127/3/4 105/4/4
f 105/1/4 127/2/4 129/3/4 107/4/4
f 107/1/4 129/2/4 131/3/4 109/4/4
f 111/1/4 133/2/4 135/3/4 113/4/4
f 113/1/4 135/2/4 137/3/4 115/4/4
f 115/1/4 137/2/4 139/3/4 117/4/4
f 117/1/4 139/2/4 141/3/4 119/4/4
f 119/1/4 141/2/4 143/3/4 121/4/4
f 121/1/4 143/2/4 145/3/4 123/4/4
f 123/1/4 145/2/4 147/3/4 125/4/4
f 125/1/4 147/2/4 149/3/4 127/4/4
f 127/1/4 149/2/4 151/3/4 129/4/4
f 129/1/4 151/2/4 153/3/4 131/4/4
f 133/1/4 155/2/4 157/3/4 135/4/4
f 135/1/4 157/2/4 159/3/4 137/4/4
f 137/1/4 159/2/4 161/3/4 139/4/4
f 139/1/4 161/2/4 163/3/4 141/4/4
f 141/1/4 163/2/4 165/3/4 143/4/4
f 143/1/4 165/2/4 167/3/4 145/4/4
f 145/1/4 167/2/4 169/3/4 147/4/4
f 147/1/4 169/2/4 171/3/4 149/4/4
f 149/1/4 171/2/4 173/3/4 151/4/4
f 151/1/4 173/2/4 175/3/4 153/4/4
f 155/1/4 177/2/4 179/3/4 157/4/4
f 157/1/4 179/2/4 181/3/4 159/4/4
f 159/1/4 181/2/4 183/3/4 161/4/4
f 161/1/4 183/2/4 185/3/4 163/4/4
f 163/1/4 185/2/4 187/3/4 165/4/4
f 165/1/4 187/2/4 189/3/4 167/4/4
f 167/1/4 189/2/4 191/3/4 169/4/4
f 169/1/4 191/2/4 193/3/4 171/4/4
f 171/1/4 193/2/4 195/3/4 173/4/4
f 173/1/4 195/2/4 197/3/4 175/4/4
f 177/1/4 199/2/4 201/3/4 179/4/4
f 179/1/4 201/2/4 203/3/4 181/4/4
f 181/1/4 203/2/4 205/3/4 183/4/4
f 183/1/4 205/2/4 207/3/4 185/4/4
f 185/1/4 207/2/4 209/3/4 187/4/4
f 187/1/4 209/2/4 211/3/4 189/4/4
f 189/1/4 211/2/4 213/3/4 191/4/4
f 191/1/4 213/2/4 215/3/4 193/4/4
f 193/1/4 215/2/4 217/3/4 195/4/4
f 195/1/4 217/2/4 219/3/4 197/4/4
f 199/1/4 221/2/4 223/3/4 201/4/4
f 201/1/4 223/2/4 225/3/4 203/4/4
f 203/1/4 225/2/4 227/3/4 205/4/4
f 205/1/4 227/2/4 229/3/4 207/4/4
f 207/1/4 229/2/4 231/3/4 209/4/4
f 209/1/4 231/2/4 233/3/4 211/4/4
f 211/1/4 233/2/4 235/3/4 213/4/4
f 213/1/4 235/2/4 237/3/4 215/4/4
f 215/1/4 237/2/4 239/3/4 217/4/4
f 217/1/4 239/2/4 241/3/4 219/4/4
usemtl Material_Teto
f 4/1/3 26/2/3 24/3/3 2/4/3
f 6/1/3 28/2/3 26/3/3 4/4/3
f 8/1/3 30/2/3 28/3/3 6/4/3
f 10/1/3 32/2/3 30/3/3 8/4/3
f 12/1/3 34/2/3 32/3/3 10/4/3
f 14/1/3 36/2/3 34/3/3 12/4/3
f 16/1/3 38/2/3 36/3/3 14/4/3
f 18/1/3 40/2/3 38/3/3 16/4/3
f 20/1/3 42/2/3 40/3/3 18/4/3
f 22/1/3 44/2/3 42/3/3 20/4/3
f 26/1/3 48/2/3 46/3/3 24/4/3
f 28/1/3 50/2/3 48/3/3 26/4/3
f 30/1/3 52/2/3 50/3/3 28/4/3
f 32/1/3 54/2/3 52/3/3 30/4/3
f 34/1/3 56/2/3 54/3/3 32/4/3
f 36/1/3 58/2/3 56/3/3 34/4/3
f 38/1/3 60/2/3 58/3/3 36/4/3
f 40/1/3 62/2/3 60/3/3 38/4/3
f 42/1/3 64/2/3 62/3/3 40/4/3
f 44/1/3 66/2/3 64/3/3 42/4/3
f 48/1/3 70/2/3 68/3/3 46/4/3
f 50/1/3 72/2/3 70/3/3 48/4/3
f 52/1/3 74/2/3 72/3/3 50/4/3
f 54/1/3 76/2/3 74/3/3 52/4/3
f 56/1/3 78/2/3 76/3/3 54/4/3
f 58/1/3 80/2/3 78/3/3 56/4/3
f 60/1/3 82/2/3 80/3/3 58/4/3
f 62/1/3 84/2/3 82/3/3 60/4/3
f 64/1/3 86/2/3 84/3/3 62/4/3
f 66/1/3 88/2/3 86/3/3 64/4/3
f 70/1/3 92/2/3 90/3/3 68/4/3
f 72/1/3 94/2/3 92/3/3 70/4/3
f 74/1/3 96/2/3 94/3/3 72/4/3
f 76/1/3 98/2/3 96/3/3 74/4/3
f 78/1/3 100/2/3 98/3/3 76/4/3
f 80/1/3 102/2/3 100/3/3 78/4/3
f 82/1/3 104/2/3 102/3/3 80/4/3
f 84/1/3 106/2/3 104/3/3 82/4/3
f 86/1/3 108/2/3 106/3/3 84/4/3
f 88/1/3 110/2/3 108/3/3 86/4/3
f 92/1/3 114/2/3 112/3/3 90/4/3
f 94/1/3 116/2/3 114/3/3 92/4/3
f 96/1/3 118/2/3 116/3/3 94/4/3
f 98/1/3 120/2/3 118/3/3 96/4/3
f 100/1/3 122/2/3 120/3/3 98/4/3
f 102/1/3 124/2/3 122/3/3 100/4/3
f 104/1/3 126/2/3 124/3/3 102/4/3
f 106/1/3 128/2/3 126/3/3 104/4/3
f 108/1/3 130/2/3 128/3/3 106/4/3
f 110/1/3 132/2/3 130/3/3 108/4/3
f 114/1/3 136/2/3 134/3/3 112/4/3
f 116/1/3 138/2/3 136/3/3 114/4/3
f 118/1/3 140/2/3 138/3/3 116/4/3
f 120/1/3 142/2/3 140/3/3 118/4/3
f 122/1/3 144/2/3 142/3/3 120/4/3
f 124/1/3 146/2/3 144/3/3 122/4/3
f 126/1/3 148/2/3 146/3/3 124/4/3
f 128/1/3 150/2/3 148/3/3 126/4/3
f 130/1/3 152/2/3 150/3/3 128/4/3
f 132/1/3 154/2/3 152/3/3 130/4/3
f 136/1/3 158/2/3 156/3/3 134/4/3
f 138/1/3 160/2/3 158/3/3 136/4/3
f 140/1/3 162/2/3 160/3/3 138/4/3
f 142/1/3 164/2/3 162/3/3 140/4/3
f 144/1/3 166/2/3 164/3/3 142/4/3
f 146/1/3 168/2/3 166/3/3 144/4/3
f 148/1/3 170/2/3 168/3/3 146/4/3
f 150/1/3 172/2/3 170/3/3 148/4/3
f 152/1/3 174/2/3 172/3/3 150/4/3
f 154/1/3 176/2/3 174/3/3 152/4/3
f 158/1/3 180/2/3 178/3/3 156/4/3
f 160/1/3 182/2/3 180/3/3 158/4/3
f 162/1/3 184/2/3 182/3/3 160/4/3
f 164/1/3 186/2/3 184/3/3 162/4/3
f 166/1/3 188/2/3 186/3/3 164/4/3
f 168/1/3 190/2/3 188/3/3 166/4/3
f 170/1/3 192/2/3 190/3/3 168/4/3
f 172/1/3 194/2/3 192/3/3 170/4/3
f 174/1/3 196/2/3 194/3/3 172/4/3
f 176/1/3 198/2/3 196/3/3 174/4/3
f 180/1/3 202/2/3 200/3/3 178/4/3
f 182/1/3 204/2/3 202/3/3 180/4/3
f 184/1/3 206/2/3 204/3/3 182/4/3
f 186/1/3 208/2/3 206/3/3 184/4/3
f 188/1/3 210/2/3 208/3/3 186/4/3
f 190/1/3 212/2/3 210/3/3 188/4/3
f 192/1/3 214/2/3 212/3/3 190/4/3
f 194/1/3 216/2/3 214/3/3 192/4/3
f 196/1/3 218/2/3 216/3/3 194/4/3
f 198/1/3 220/2/3 218/3/3 196/4/3
f 202/1/3 224/2/3 222/3/3 200/4/3
f 204/1/3 226/2/3 224/3/3 202/4/3
f 206/1/3 228/2/3 226/3/3 204/4/3
f 208/1/3 230/2/3 228/3/3 206/4/3
f 210/1/3 232/2/3 230/3/3 208/4/3
f 212/1/3 234/2/3 232/3/3 210/4/3
f 214/1/3 236/2/3 234/3/3 212/4/3
f 216/1/3 238/2/3 236/3/3 214/4/3
f 218/1/3 240/2/3 238/3/3 216/4/3
f 220/1/3 242/2/3 240/3/3 218/4/3
usemtl Material_Parede
f 1/1/6 3/2/6 4/3/6 2/4/6
f 223/1/1 221/2/1 222/3/1 224/4/1
f 3/1/6 5/2/6 6/3/6 4/4/6
f 225/1/1 223/2/1 224/3/1 226/4/1
f 5/1/6 7/2/6 8/3/6 6/4/6
f 227/1/1 225/2/1 226/3/1 228/4/1
f 7/1/6 9/2/6 10/3/6 8/4/6
f 229/1/1 227/2/1 228/3/1 230/4/1
f 9/1/6 11/2/6 12/3/6 10/4/6
f 231/1/1 229/2/1 230/3/1 232/4/1
f 11/1/6 13/2/6 14/3/6 12/4/6
f 233/1/1 231/2/1 232/3/1 234/4/1
f 13/1/6 15/2/6 16/3/6 14/4/6
f 235/1/1 233/2/1 234/3/1 236/4/1
f 15/1/6 17/2/6 18/3/6 16/4/6
f 237/1/1 235/2/1 236/3/1 238/4/1
f 17/1/6 19/2/6 20/3/6 18/4/6
f 239/1/1 237/2/1 238/3/1 240/4/1
f 19/1/6 21/2/6 22/3/6 20/4/6
f 241/1/1 239/2/1 240/3/1 242/4/1
f 23/1/2 1/2/2 2/3/2 24/4/2
f 21/1/5 43/2/5 44/3/5 22/4/5
f 45/1/2 23/2/2 24/3/2 46/4/2
f 43/1/5 65/2/5 66/3/5 44/4/5
f 67/1/2 45/2/2 46/3/2 68/4/2
f 65/1/5 87/2/5 88/3/5 66/4/5
f 89/1/2 67/2/2 68/3/2 90/4/2
f 87/1/5 109/2/5 110/3/5 88/4/5
f 111/1/2 89/2/2 90/3/2 112/4/2
f 109/1/5 131/2/5 132/3/5 110/4/5
f 133/1/2 111/2/2 112/3/2 134/4/2
f 131/1/5 153/2/5 154/3/5 132/4/5
f 155/1/2 133/2/2 134/3/2 156/4/2
f 153/1/5 175/2/5 176/3/5 154/4/5
f 177/1/2 155/2/2 156/3/2 178/4/2
f 175/1/5 197/2/5 198/3/5 176/4/5
f 199/1/2 177/2/2 178/3/2 200/4/2
f 197/1/5 219/2/5 220/3/5 198/4/5
f 221/1/2 199/2/2 200/3/2 222/4/2
f 219/1/5 241/2/5 242/3/5 220/4/5
